G04 (created by PCBNEW-RS274X (2011-oct-15)-testing) date Qui 03 Nov 2011 22:48:38 WET*
G01*
G70*
G90*
%MOIN*%
G04 Gerber Fmt 3.4, Leading zero omitted, Abs format*
%FSLAX34Y34*%
G04 APERTURE LIST*
%ADD10C,0.006000*%
%ADD11C,0.015000*%
%ADD12C,0.060000*%
%ADD13R,0.060000X0.060000*%
%ADD14R,0.055000X0.035000*%
%ADD15R,0.047200X0.047200*%
%ADD16R,0.078700X0.039400*%
%ADD17R,0.039400X0.078700*%
%ADD18R,0.035000X0.055000*%
%ADD19C,0.031500*%
%ADD20C,0.023600*%
G04 APERTURE END LIST*
G54D10*
G54D11*
X00100Y16800D02*
X00100Y16600D01*
X27400Y16800D02*
X00100Y16800D01*
X27400Y16600D02*
X27400Y16800D01*
X27400Y00100D02*
X27400Y16600D01*
X27000Y00100D02*
X27400Y00100D01*
X27300Y00100D02*
X27000Y00100D01*
X00100Y16600D02*
X00100Y00100D01*
X00600Y00100D02*
X00100Y00100D01*
X00600Y00100D02*
X27100Y00100D01*
G54D12*
X01400Y10400D03*
X01400Y05400D03*
X01400Y04400D03*
X01400Y03400D03*
X01400Y02400D03*
X01400Y01400D03*
X01400Y11400D03*
X01400Y12400D03*
X01400Y13400D03*
X01400Y14400D03*
G54D13*
X01400Y15400D03*
G54D12*
X01400Y09400D03*
X01400Y08400D03*
X01400Y07400D03*
X01400Y06400D03*
X26000Y10400D03*
X26000Y05400D03*
X26000Y04400D03*
X26000Y03400D03*
X26000Y02400D03*
X26000Y01400D03*
X26000Y11400D03*
X26000Y12400D03*
X26000Y13400D03*
X26000Y14400D03*
G54D13*
X26000Y15400D03*
G54D12*
X26000Y09400D03*
X26000Y08400D03*
X26000Y07400D03*
X26000Y06400D03*
G54D14*
X14900Y07375D03*
X14900Y06625D03*
X14900Y14975D03*
X14900Y14225D03*
G54D15*
X14900Y05413D03*
X14900Y04587D03*
X14900Y13013D03*
X14900Y12187D03*
G54D16*
X13100Y02900D03*
X13100Y03491D03*
X13100Y04081D03*
X13100Y04672D03*
X13100Y05262D03*
X13100Y05853D03*
X13100Y06443D03*
X13100Y07034D03*
G54D17*
X05309Y02400D03*
X05899Y02400D03*
X06490Y02400D03*
X07080Y02400D03*
X07671Y02400D03*
X08261Y02400D03*
X08852Y02400D03*
X09443Y02400D03*
X10033Y02400D03*
X10624Y02400D03*
X11805Y02400D03*
X11214Y02400D03*
X12395Y02400D03*
X12395Y07518D03*
X11805Y07518D03*
X11214Y07518D03*
X10624Y07518D03*
X10033Y07518D03*
X09443Y07518D03*
X08852Y07518D03*
X08261Y07518D03*
X07671Y07518D03*
X07080Y07518D03*
X06490Y07518D03*
X05899Y07518D03*
X05309Y07518D03*
G54D16*
X13100Y10500D03*
X13100Y11091D03*
X13100Y11681D03*
X13100Y12272D03*
X13100Y12862D03*
X13100Y13453D03*
X13100Y14043D03*
X13100Y14634D03*
G54D17*
X05309Y10000D03*
X05899Y10000D03*
X06490Y10000D03*
X07080Y10000D03*
X07671Y10000D03*
X08261Y10000D03*
X08852Y10000D03*
X09443Y10000D03*
X10033Y10000D03*
X10624Y10000D03*
X11805Y10000D03*
X11214Y10000D03*
X12395Y10000D03*
X12395Y15118D03*
X11805Y15118D03*
X11214Y15118D03*
X10624Y15118D03*
X10033Y15118D03*
X09443Y15118D03*
X08852Y15118D03*
X08261Y15118D03*
X07671Y15118D03*
X07080Y15118D03*
X06490Y15118D03*
X05899Y15118D03*
X05309Y15118D03*
G54D18*
X11825Y09000D03*
X12575Y09000D03*
X11801Y01294D03*
X12551Y01294D03*
G54D19*
X11805Y01220D02*
X11825Y01200D01*
X09850Y08400D02*
X10050Y08400D01*
X10650Y09000D02*
X11825Y09000D01*
X10050Y08400D02*
X10650Y09000D01*
X11805Y10000D02*
X11805Y09020D01*
X11805Y09020D02*
X11825Y09000D01*
X11805Y02400D02*
X11805Y01298D01*
X11805Y01298D02*
X11801Y01294D01*
X01400Y14400D02*
X03500Y14400D01*
X03500Y14400D02*
X05700Y12200D01*
X05700Y12200D02*
X11100Y12200D01*
X11100Y12200D02*
X11805Y11495D01*
X11805Y11495D02*
X11805Y10000D01*
X11805Y03295D02*
X11805Y02400D01*
X09900Y05200D02*
X11805Y03295D01*
X06300Y05200D02*
X09900Y05200D01*
X04500Y07000D02*
X06300Y05200D01*
X04500Y08000D02*
X04500Y07000D01*
X04900Y08400D02*
X04500Y08000D01*
X09900Y08400D02*
X09850Y08400D01*
X09850Y08400D02*
X04900Y08400D01*
X01400Y13400D02*
X02500Y13400D01*
X05309Y10591D02*
X02500Y13400D01*
X05309Y10591D02*
X05309Y10000D01*
X01400Y12400D02*
X01900Y12400D01*
X01900Y12400D02*
X02300Y12000D01*
X05300Y09000D02*
X04700Y09000D01*
X05899Y09199D02*
X05700Y09000D01*
X05700Y09000D02*
X05300Y09000D01*
X05899Y10000D02*
X05899Y09199D01*
X04500Y09800D02*
X02300Y12000D01*
X04500Y09200D02*
X04500Y09800D01*
X04700Y09000D02*
X04500Y09200D01*
X02300Y12000D02*
X02300Y12000D01*
X05300Y05400D02*
X05300Y05500D01*
X05300Y05400D02*
X05300Y02409D01*
X05309Y02400D02*
X05300Y02409D01*
X02600Y10400D02*
X01400Y10400D01*
X03600Y09400D02*
X02600Y10400D01*
X03600Y07200D02*
X03600Y09400D01*
X05300Y05500D02*
X03600Y07200D01*
X04700Y05200D02*
X04700Y05300D01*
X05899Y01599D02*
X05700Y01400D01*
X05700Y01400D02*
X05100Y01400D01*
X05100Y01400D02*
X04900Y01400D01*
X04900Y01400D02*
X04700Y01600D01*
X04700Y01600D02*
X04700Y05200D01*
X05899Y02400D02*
X05899Y01599D01*
X02200Y09400D02*
X01400Y09400D01*
X02800Y08800D02*
X02200Y09400D01*
X02800Y07200D02*
X02800Y08800D01*
X04700Y05300D02*
X02800Y07200D01*
X14892Y01672D02*
X14892Y03508D01*
X12551Y00568D02*
X13788Y00568D01*
X14892Y01672D02*
X13788Y00568D01*
X14900Y03500D02*
X14900Y03400D01*
X14892Y03508D02*
X14900Y03500D01*
X12395Y10000D02*
X12395Y09905D01*
X12575Y09725D02*
X12575Y09000D01*
X12395Y09905D02*
X12575Y09725D01*
X12575Y09000D02*
X14100Y09000D01*
X14500Y09400D02*
X14900Y09800D01*
X14100Y09000D02*
X14500Y09400D01*
X12551Y01294D02*
X12551Y00568D01*
X01400Y02400D02*
X03000Y02400D01*
X03000Y02400D02*
X03348Y02052D01*
X04832Y00568D02*
X03348Y02052D01*
X12551Y00568D02*
X04832Y00568D01*
X12395Y02400D02*
X12395Y01450D01*
X12395Y01450D02*
X12551Y01294D01*
X15300Y03400D02*
X14900Y03400D01*
X14900Y03400D02*
X14942Y03400D01*
X14942Y03400D02*
X14900Y03400D01*
X15500Y03400D02*
X15300Y03400D01*
X15300Y03400D02*
X15100Y03400D01*
X15900Y03800D02*
X15500Y03400D01*
X15900Y08800D02*
X15900Y03800D01*
X14900Y09800D02*
X15900Y08800D01*
X14900Y09800D02*
X14900Y09800D01*
X14900Y12187D02*
X14900Y09800D01*
X14900Y03400D02*
X14900Y04587D01*
X14900Y06625D02*
X14900Y05600D01*
G54D20*
X14900Y05600D02*
X14900Y05413D01*
G54D19*
X11214Y07518D02*
X11214Y07914D01*
X14900Y08000D02*
X14900Y07375D01*
X14600Y08300D02*
X14900Y08000D01*
X11600Y08300D02*
X14600Y08300D01*
X11214Y07914D02*
X11600Y08300D01*
X14900Y14975D02*
X14900Y15400D01*
X11214Y15714D02*
X11214Y15118D01*
X11500Y16000D02*
X11214Y15714D01*
X14300Y16000D02*
X11500Y16000D01*
X14900Y15400D02*
X14300Y16000D01*
X14900Y14225D02*
X14900Y13013D01*
M02*
