M48
;DRILL file {Pcbnew (2011-oct-15)-testing} date Qui 03 Nov 2011 22:48:43 WET
;FORMAT={-:-/ absolute / inch / decimal}
FMAT,2
INCH,TZ
T1C0.040
%
G90
G05
M72
T1
X0.140Y1.540
X0.140Y1.440
X0.140Y1.340
X0.140Y1.240
X0.140Y1.140
X0.140Y1.040
X0.140Y0.940
X0.140Y0.840
X0.140Y0.740
X0.140Y0.640
X0.140Y0.540
X0.140Y0.440
X0.140Y0.340
X0.140Y0.240
X0.140Y0.140
X2.600Y1.540
X2.600Y1.440
X2.600Y1.340
X2.600Y1.240
X2.600Y1.140
X2.600Y1.040
X2.600Y0.940
X2.600Y0.840
X2.600Y0.740
X2.600Y0.640
X2.600Y0.540
X2.600Y0.440
X2.600Y0.340
X2.600Y0.240
X2.600Y0.140
T0
M30
