G04 (created by PCBNEW-RS274X (2011-oct-15)-testing) date Qui 03 Nov 2011 22:48:38 WET*
G01*
G70*
G90*
%MOIN*%
G04 Gerber Fmt 3.4, Leading zero omitted, Abs format*
%FSLAX34Y34*%
G04 APERTURE LIST*
%ADD10C,0.006000*%
%ADD11C,0.015000*%
%ADD12C,0.080000*%
%ADD13R,0.080000X0.080000*%
%ADD14R,0.075000X0.055000*%
%ADD15R,0.067200X0.067200*%
%ADD16R,0.098700X0.059400*%
%ADD17R,0.059400X0.098700*%
%ADD18R,0.055000X0.075000*%
G04 APERTURE END LIST*
G54D10*
G54D11*
X00100Y16800D02*
X00100Y16600D01*
X27400Y16800D02*
X00100Y16800D01*
X27400Y16600D02*
X27400Y16800D01*
X27400Y00100D02*
X27400Y16600D01*
X27000Y00100D02*
X27400Y00100D01*
X27300Y00100D02*
X27000Y00100D01*
X00100Y16600D02*
X00100Y00100D01*
X00600Y00100D02*
X00100Y00100D01*
X00600Y00100D02*
X27100Y00100D01*
G54D12*
X01400Y10400D03*
X01400Y05400D03*
X01400Y04400D03*
X01400Y03400D03*
X01400Y02400D03*
X01400Y01400D03*
X01400Y11400D03*
X01400Y12400D03*
X01400Y13400D03*
X01400Y14400D03*
G54D13*
X01400Y15400D03*
G54D12*
X01400Y09400D03*
X01400Y08400D03*
X01400Y07400D03*
X01400Y06400D03*
X26000Y10400D03*
X26000Y05400D03*
X26000Y04400D03*
X26000Y03400D03*
X26000Y02400D03*
X26000Y01400D03*
X26000Y11400D03*
X26000Y12400D03*
X26000Y13400D03*
X26000Y14400D03*
G54D13*
X26000Y15400D03*
G54D12*
X26000Y09400D03*
X26000Y08400D03*
X26000Y07400D03*
X26000Y06400D03*
G54D14*
X14900Y07375D03*
X14900Y06625D03*
X14900Y14975D03*
X14900Y14225D03*
G54D15*
X14900Y05413D03*
X14900Y04587D03*
X14900Y13013D03*
X14900Y12187D03*
G54D16*
X13100Y02900D03*
X13100Y03491D03*
X13100Y04081D03*
X13100Y04672D03*
X13100Y05262D03*
X13100Y05853D03*
X13100Y06443D03*
X13100Y07034D03*
G54D17*
X05309Y02400D03*
X05899Y02400D03*
X06490Y02400D03*
X07080Y02400D03*
X07671Y02400D03*
X08261Y02400D03*
X08852Y02400D03*
X09443Y02400D03*
X10033Y02400D03*
X10624Y02400D03*
X11805Y02400D03*
X11214Y02400D03*
X12395Y02400D03*
X12395Y07518D03*
X11805Y07518D03*
X11214Y07518D03*
X10624Y07518D03*
X10033Y07518D03*
X09443Y07518D03*
X08852Y07518D03*
X08261Y07518D03*
X07671Y07518D03*
X07080Y07518D03*
X06490Y07518D03*
X05899Y07518D03*
X05309Y07518D03*
G54D16*
X13100Y10500D03*
X13100Y11091D03*
X13100Y11681D03*
X13100Y12272D03*
X13100Y12862D03*
X13100Y13453D03*
X13100Y14043D03*
X13100Y14634D03*
G54D17*
X05309Y10000D03*
X05899Y10000D03*
X06490Y10000D03*
X07080Y10000D03*
X07671Y10000D03*
X08261Y10000D03*
X08852Y10000D03*
X09443Y10000D03*
X10033Y10000D03*
X10624Y10000D03*
X11805Y10000D03*
X11214Y10000D03*
X12395Y10000D03*
X12395Y15118D03*
X11805Y15118D03*
X11214Y15118D03*
X10624Y15118D03*
X10033Y15118D03*
X09443Y15118D03*
X08852Y15118D03*
X08261Y15118D03*
X07671Y15118D03*
X07080Y15118D03*
X06490Y15118D03*
X05899Y15118D03*
X05309Y15118D03*
G54D18*
X11825Y09000D03*
X12575Y09000D03*
X11801Y01294D03*
X12551Y01294D03*
M02*
